<svg xmlns="http://www.w3.org/2000/svg" width="106" height="93" viewBox="0 0 106 93"><defs><style>.a{fill:none;}.b,.d{fill:#ef6a8a;}.b{font-size:49px;font-family:NunitoSans-Regular, Nunito Sans;}.c,.d{stroke:none;}</style></defs><g transform="translate(-907 -322)"><g class="a" transform="translate(907 322)"><path class="c" d="M49.525,6.1a4,4,0,0,1,6.951,0l46.116,80.921A4,4,0,0,1,99.116,93H6.884a4,4,0,0,1-3.475-5.981Z"/><path class="d" d="M 52.99998474121094 7.078636169433594 C 52.7829704284668 7.078636169433594 52.38152313232422 7.144218444824219 52.13116836547852 7.583511352539063 L 6.01470947265625 88.50486755371094 C 5.76678466796875 88.93989562988281 5.910926818847656 89.31660461425781 6.018905639648438 89.50243377685547 C 6.12689208984375 89.68826293945313 6.3828125 90.00000762939453 6.883522033691406 90.00000762939453 L 99.11646270751953 90.00000762939453 C 99.6171875 90.00000762939453 99.87310791015625 89.68824768066406 99.98109436035156 89.50243377685547 C 100.0890808105469 89.31660461425781 100.2332153320313 88.93989562988281 99.98529052734375 88.50486755371094 L 53.86881637573242 7.583511352539063 C 53.61846160888672 7.144218444824219 53.21699905395508 7.078636169433594 52.99998474121094 7.078636169433594 M 52.99999237060547 4.078636169433594 C 54.35400009155273 4.078636169433594 55.7080078125 4.751800537109375 56.47526168823242 6.098114013671875 L 102.5917358398438 87.01947021484375 C 104.1114120483398 89.68606567382813 102.1857070922852 93.00000762939453 99.11646270751953 93.00000762939453 L 6.883522033691406 93.00000762939453 C 3.814292907714844 93.00000762939453 1.888587951660156 89.68606567382813 3.40826416015625 87.01947021484375 L 49.52472305297852 6.098114013671875 C 50.29197692871094 4.751800537109375 51.6459846496582 4.078636169433594 52.99999237060547 4.078636169433594 Z"/></g><text class="b" transform="translate(960 398)"><tspan x="-5.61" y="0">!</tspan></text></g></svg>