<svg xmlns="http://www.w3.org/2000/svg" width="106.356" height="106.356" viewBox="0 0 106.356 106.356"><defs><style>.a{fill:#ffcc80;}.b{fill:#ffb74d;}.c{fill:#424242;}.d{fill:#ffe4c0;}.e{fill:#ef5350;}</style></defs><g transform="translate(0 0)"><path class="a" d="M53.178,106.356a46.42,46.42,0,0,1-20.792-5A56.458,56.458,0,0,1,15.514,88.366C5.655,77.385,0,63.348,0,49.855A48.015,48.015,0,0,1,15.615,14.564,54.68,54.68,0,0,1,53.178,0,54.68,54.68,0,0,1,90.741,14.564a48.015,48.015,0,0,1,15.615,35.291c0,13.494-5.655,27.531-15.514,38.511A56.458,56.458,0,0,1,73.97,101.357,46.42,46.42,0,0,1,53.178,106.356Z" transform="translate(0 0)"/><path class="b" d="M114.439,109.135q.27,2.754.274,5.581a56.5,56.5,0,0,1-93.678,42.547A62.556,62.556,0,0,0,32.18,174.831a56.458,56.458,0,0,0,16.872,12.991,45.735,45.735,0,0,0,41.584,0,56.457,56.457,0,0,0,16.872-12.991c9.859-10.981,15.514-25.018,15.514-38.511a47.3,47.3,0,0,0-8.583-27.184Z" transform="translate(-16.665 -86.465)"/><path class="c" d="M134.956,121.971a1.662,1.662,0,0,1-1.662-1.662,4.985,4.985,0,0,0-9.971,0,1.662,1.662,0,0,1-3.324,0,8.309,8.309,0,1,1,16.618,0A1.662,1.662,0,0,1,134.956,121.971Z" transform="translate(-95.073 -88.735)"/><path class="c" d="M326.956,121.971a1.662,1.662,0,0,1-1.662-1.662,4.985,4.985,0,1,0-9.971,0,1.662,1.662,0,1,1-3.324,0,8.309,8.309,0,1,1,16.618,0A1.662,1.662,0,0,1,326.956,121.971Z" transform="translate(-247.189 -88.735)"/><circle class="d" cx="5" cy="5" r="5" transform="translate(87 26)"/><circle class="d" cx="5" cy="5" r="5" transform="translate(10 26)"/><g transform="translate(14.956 36.554)"><path class="e" d="M135.575,218.589a36.149,36.149,0,0,1-22.172-7.164c-6.064-4.716-9.4-11.024-9.4-17.763a1.662,1.662,0,0,1,3.324,0c0,11.912,12.673,21.6,28.251,21.6s28.251-9.691,28.251-21.6a1.662,1.662,0,0,1,3.324,0c0,6.738-3.339,13.047-9.4,17.763a36.149,36.149,0,0,1-22.172,7.164Z" transform="translate(-97.353 -188.671)"/><path class="e" d="M393.969,185.138a10.152,10.152,0,0,1-9.907-7.021,1.662,1.662,0,0,1,3.2-.914,6.836,6.836,0,0,0,6.711,4.612,1.662,1.662,0,0,1,0,3.324Z" transform="translate(-319.187 -175.992)"/><path class="e" d="M73.662,185.118a1.662,1.662,0,1,1,0-3.324,6.837,6.837,0,0,0,6.714-4.622,1.662,1.662,0,1,1,3.193.924A10.152,10.152,0,0,1,73.662,185.118Z" transform="translate(-72 -175.972)"/></g><path class="b" d="M230.956,339.324H217.662a1.662,1.662,0,1,1,0-3.324h13.295a1.662,1.662,0,1,1,0,3.324Z" transform="translate(-171.131 -266.204)"/></g></svg>