<svg xmlns="http://www.w3.org/2000/svg" width="60" height="70.457" viewBox="0 0 60 70.457"><defs><style>.a{fill:#00dd80;}.b{fill:#00aa63;}.c{fill:#fff;}.d{fill:#e1ebf0;}.e{fill:#b4d2d7;}.f{fill:#6fa5aa;}</style></defs><g transform="translate(-0.5 0)"><path class="a" d="M57.331,47.051a35.547,35.547,0,0,1-8.514,13.263,44.564,44.564,0,0,1-16.639,9.858,5.09,5.09,0,0,1-1.617.285H30.5a5.163,5.163,0,0,1-.992-.1,5.376,5.376,0,0,1-.682-.186,44.561,44.561,0,0,1-16.658-9.853,35.479,35.479,0,0,1-8.512-13.26C.217,37.729.413,27.449.571,19.188l0-.127c.032-.682.052-1.4.063-2.19A7.467,7.467,0,0,1,7.668,9.556c8.1-.452,14.368-3.094,19.722-8.313l.047-.043a4.513,4.513,0,0,1,6.127,0l.046.043C38.966,6.462,45.233,9.1,53.334,9.556a7.467,7.467,0,0,1,7.032,7.316c.011.8.032,1.512.063,2.19l0,.054C60.587,27.392,60.782,37.692,57.331,47.051Zm0,0" transform="translate(0 0)"/><path class="b" d="M245.718,47.054A35.547,35.547,0,0,1,237.2,60.317a44.564,44.564,0,0,1-16.639,9.858,5.09,5.09,0,0,1-1.617.285V0a4.52,4.52,0,0,1,3,1.2l.046.043c5.356,5.219,11.622,7.861,19.723,8.313a7.467,7.467,0,0,1,7.032,7.316c.011.8.032,1.512.063,2.19l0,.054C248.975,27.395,249.169,37.7,245.718,47.054Zm0,0" transform="translate(-188.388 -0.003)"/><path class="c" d="M126.014,145.958a17.581,17.581,0,0,1-17.5,17.56h-.062a17.56,17.56,0,1,1,0-35.12h.062A17.581,17.581,0,0,1,126.014,145.958Zm0,0" transform="translate(-77.955 -110.729)"/><path class="d" d="M236.447,145.958a17.581,17.581,0,0,1-17.5,17.56V128.4A17.581,17.581,0,0,1,236.447,145.958Zm0,0" transform="translate(-188.388 -110.729)"/><path class="e" d="M171,215.509l-7.908,7.91-1.709,1.709a2.069,2.069,0,0,1-2.925,0l-3.674-3.676a2.067,2.067,0,1,1,2.923-2.923l2.214,2.214,8.156-8.156A2.067,2.067,0,1,1,171,215.509Zm0,0" transform="translate(-132.53 -182.809)"/><path class="f" d="M226.857,215.509l-7.908,7.91V217.57l4.985-4.985a2.067,2.067,0,0,1,2.923,2.923Zm0,0" transform="translate(-188.388 -182.809)"/></g></svg>