<svg xmlns="http://www.w3.org/2000/svg" width="88.405" height="92.272" viewBox="0 0 88.405 92.272"><defs><style>.a{fill:#ff9a00;}.b{fill:#e67500;}.c{fill:#e1e4fb;}.d{fill:#c5c9f7;}.e{fill:#ffb74f;}.f{fill:#97a1f0;}.g{fill:#6d76e7;}</style></defs><path class="a" d="M88.4,42.994V99.1H0V42.994L44.2,8.328Zm0,0" transform="translate(0 -6.827)"/><path class="b" d="M289.472,42.994V99.1H245.3a2.1,2.1,0,0,1-.031-.36V8.328Zm0,0" transform="translate(-201.068 -6.827)"/><path class="c" d="M73.969,0h61.743V74.914H73.969Zm0,0" transform="translate(-60.638)"/><path class="d" d="M245.27,0h30.872V74.914H245.27Zm0,0" transform="translate(-201.068)"/><path class="e" d="M88.4,200.789v56.086H0V200.789l44.2,34.666Zm0,0" transform="translate(0 -164.603)"/><path class="a" d="M289.472,200.789v56.086H245.3a2.1,2.1,0,0,1-.031-.36v-21.06Zm0,0" transform="translate(-201.068 -164.603)"/><path class="f" d="M159.3,63h30.986v5.407H159.3Zm0,0" transform="translate(-130.592 -51.646)"/><path class="f" d="M159.3,122.672h30.986v5.407H159.3Zm0,0" transform="translate(-130.592 -100.564)"/><path class="f" d="M159.3,182.328h30.986v5.407H159.3Zm0,0" transform="translate(-130.592 -149.469)"/><path class="f" d="M191.77,242h19.283v5.407H191.77Zm0,0" transform="translate(-157.209 -198.387)"/><path class="g" d="M245.27,242h9.642v5.407H245.27Zm0,0" transform="translate(-201.068 -198.387)"/><path class="g" d="M245.27,63h15.493v5.407H245.27Zm0,0" transform="translate(-201.068 -51.646)"/><path class="g" d="M245.27,122.672h15.493v5.407H245.27Zm0,0" transform="translate(-201.068 -100.564)"/><path class="g" d="M245.27,182.328h15.493v5.407H245.27Zm0,0" transform="translate(-201.068 -149.469)"/></svg>